<svg width="27" height="17" viewBox="0 0 27 17" fill="none" xmlns="http://www.w3.org/2000/svg">
<path d="M25.3125 17H1.68751C0.755492 17 0 16.2165 0 15.25C0 14.2835 0.755492 13.5 1.68751 13.5H25.3125C26.2445 13.5 27.0001 14.2835 27.0001 15.25C27 16.2165 26.2445 17 25.3125 17Z" fill="#04A89E"/>
<path d="M25.3125 10.5H1.68751C0.755492 10.5 0 9.71649 0 8.75001C0 7.78353 0.755492 7 1.68751 7H25.3125C26.2445 7 27.0001 7.78347 27.0001 8.75001C27.0001 9.71655 26.2445 10.5 25.3125 10.5Z" fill="#04A89E"/>
<path d="M25.3125 4.00002H1.68751C0.755492 4.00002 0 3.21655 0 2.25001C0 1.28347 0.755492 0.5 1.68751 0.5H25.3125C26.2445 0.5 27.0001 1.28347 27.0001 2.25001C27.0001 3.21655 26.2445 4.00002 25.3125 4.00002Z" fill="#04A89E"/>
</svg>
